<?xml version="1.0" encoding="utf-8"?>
<!-- Generator: Adobe Adobe Illustrator 24.2.0, SVG Export Plug-In . SVG Version: 6.00 Build 0)  -->
<svg version="1.1" xmlns="http://www.w3.org/2000/svg" xmlns:xlink="http://www.w3.org/1999/xlink" x="0px" y="0px"
	 viewBox="0 0 620.71 620.71" style="enable-background:new 0 0 620.71 620.71;" xml:space="preserve">
<style type="text/css">
	.st0{fill:#FFFFFF;stroke:#000000;stroke-miterlimit:10;}
	.st1{fill:#FFFFFF;}
	.st2{fill:none;stroke:#000000;stroke-miterlimit:10;}
	.st3{stroke:#FFFFFF;stroke-miterlimit:10;}
	.st4{fill:#F2F2F2;}
	.st5{fill:#F2F2F2;stroke:#000000;stroke-miterlimit:10;}
	.st6{fill:#F4F4F4;stroke:#000000;stroke-miterlimit:10;}
	.st7{stroke:#000000;stroke-miterlimit:10;}
</style>
<g id="Layer_1">
	<rect x="-10.64" y="-16.58" class="st4" width="642" height="650"/>
</g>
<g id="Layer_2">
	<g>
		<path class="st0" d="M289.91,373.63c2.72-2.07,3.12-6.06,2.44-9.41c-0.68-3.35-2.19-6.53-2.44-9.94
			c-0.25-3.41,1.28-7.36,4.57-8.29c3.25-0.91,6.65,1.66,7.87,4.81c1.22,3.15,0.83,6.65,0.42,10"/>
		<path class="st0" d="M304.75,370.6c-6.82,4.5-2.1,17.4-8.92,21.9c-2.17,1.43-5.19,1.46-7.39,0.07s-3.47-4.12-3.12-6.7"/>
		<path class="st0" d="M286.89,365.67c4.92,3.88,5.47,12.16,1.09,16.65"/>
		<path class="st2" d="M248.14,274.31c-3.96-4.05-3.05-11.25,0.88-15.33c3.92-4.09,9.94-5.51,15.6-5.4
			c5.66,0.1,11.21,1.52,16.83,2.23c5.62,0.71,11.59,0.65,16.61-1.98c6.45-3.38,10.17-10.35,15.88-14.87
			c9.16-7.25,21.9-7.25,33.57-6.91"/>
		<path class="st2" d="M297.45,329.03c7.31-0.54,14.77-1.1,21.56-3.86c6.79-2.76,12.94-8.12,14.74-15.23
			c1.4-5.54,0.04-11.39,0.62-17.07c0.76-7.37,4.99-14.3,11.2-18.34"/>
		<path class="st2" d="M263.71,272.55c2.48-2.96,6.9-4.12,10.52-2.76c3.42,1.29,5.88,4.46,9.31,5.71c4.67,1.69,9.84-0.6,13.86-3.52
			c4.02-2.92,7.67-6.58,12.38-8.15"/>
		<path class="st2" d="M286.25,323.87c7.14-4.89,15.38-8.17,23.93-9.52c6.23-0.98,13.3-1.28,17.5-5.99
			c5.44-6.11,2.78-15.77,5.25-23.57c2.05-6.49,8.04-11.54,14.78-12.47"/>
		<path class="st2" d="M342.71,266.72c2.64-0.89,5.72-0.38,7.92,1.32s3.49,4.54,3.3,7.33"/>
		<path class="st2" d="M272.93,274.38c-0.76,2.49-2.31,4.73-4.37,6.32"/>
		<path class="st2" d="M275.12,285.97c2.43-2.97,3.85-6.75,8.47-8.81c-0.45,2.83-0.89,5.66-1.34,8.49"/>
		<path class="st2" d="M289.16,276.88c-0.17,2.49-0.33,4.98-0.5,7.47"/>
		<path class="st2" d="M295.39,274.89c0,2.32,0,4.65,0,6.97"/>
		<path class="st2" d="M301.04,272.24c1.92,1.59,2.94,4.2,2.61,6.67"/>
		<path class="st2" d="M203.74,278.26c4.13-6.19,0.31-15.99-6.92-17.74c-7.89-1.92-16.13,4.59-23.93,2.34
			c-7.13-2.06-10.25-10.16-12.81-17.13c-2.55-6.97-6.98-14.87-14.39-15.22c-6.99-0.33-12.2,6.36-18.84,8.58
			c-8.05,2.69-17.82-2.71-19.83-10.95"/>
		<path class="st2" d="M161.98,264.71c-0.03,3.45,3.5,6.01,6.92,6.41c3.42,0.4,6.81-0.73,10.2-1.39s7.2-0.76,9.94,1.34
			c2,1.54,3.11,4.05,5.19,5.48c2.97,2.05,7.6,1.01,9.41-2.11"/>
		<path class="st2" d="M140.3,262.62c0.98,3.72,4.2,6.75,7.97,7.49c3.77,0.74,7.91-0.84,10.22-3.91"/>
		<path class="st2" d="M146.54,273.58c2.98,1.63,6.71,1.81,9.84,0.49s5.59-4.13,6.5-7.4"/>
		<path class="st2" d="M156.21,278.7c5.4-0.19,10.51-3.91,12.33-9"/>
		<path class="st2" d="M166.9,280.08c4.69-1.88,8.41-6.04,9.76-10.91"/>
		<path class="st2" d="M181.97,271.49c-2.16,2.86-2.86,6.76-1.84,10.19"/>
		<path class="st2" d="M188.52,281.95c-2.9-2.64-2.98-7.77,4.2-7.22c1.57,1.58,3.15,3.16,4.72,4.74"/>
		<path class="st2" d="M374.24,189.58c-0.32,12.45-0.65,24.91-0.97,37.36c-2.05-8.9,3.27-18.91,11.8-22.19
			c8.53-3.28,19.18,0.58,23.63,8.56c4.82,8.65,2.27,19.6-2.22,28.43s-10.8,16.81-13.77,26.26c-3.14,9.97-2.3,20.71-3.47,31.1
			c-1.17,10.39-5.22,21.56-14.5,26.38c-7.66,3.99-18.18,3.33-23.3,10.28c-2.67,3.64-3.03,8.42-3.29,12.93
			c-1.09,18.72-2.17,37.45-3.26,56.17"/>
		<path class="st2" d="M199.87,353.01c-11.87,9.88-29.45,7.26-44.38,3.34c-14.93-3.92-31.51-8.46-45.15-1.22
			c-16.69,8.86-22.15,32.13-39.4,39.86c-7.18,3.22-15.33,3.18-23.08,4.53s-16.01,4.86-18.86,12.18c0-0.17,0-0.35,0-0.52"/>
		<path class="st2" d="M111.31,201.63c2.08,52.56,4.16,105.12,6.24,157.69"/>
		<path class="st2" d="M83.58,220.16c42.13,14.72,91.18,7.93,127.73-17.69c-7.74,10.94-19.18,19.2-31.99,23.12
			c20.55,2.66,42.2-5.42,55.97-20.9c-6.44,11.64-17.13,20.87-29.58,25.54c24.23,4,50.16-4.13,67.78-21.26
			c-7.07,6.2-14.13,12.39-21.2,18.59c22.12,0.97,42.14-11.79,61.48-22.56c19.34-10.77,42.4-20.13,63.06-12.19"/>
		<path class="st2" d="M21.71,452.76c46.44-9.55,93.27-17.19,140.34-22.9"/>
		<path class="st2" d="M284.45,415.76c82.19-15.94,165.06-28.35,248.31-37.19"/>
		<path class="st2" d="M513.93,180.44c8.62,65.18,13.01,130.93,13.12,196.68c1.14,3.72,6.61,5.19,9.46,2.53
			c2.85-2.66,1.77-8.21-1.87-9.61c-3.64-1.4-8.16,2.01-7.82,5.89"/>
		<path class="st0" d="M282.07,441.42c-38.48,11.46-79.46,14.43-119.2,8.65c-0.98-46.86-2.51-90.35-6.18-131.39
			c38.31-13.42,80.1-16.78,122.53-9.47c-0.03,15.07-0.06,30.13,2.77,43.29c2.04-8.62,4.49-17.54,10.38-24.15s16.29-10.06,23.86-5.47
			c6.76,4.1,9.05,13.2,7.53,20.97c-1.52,7.76-6.05,14.54-10.39,21.16s-8.67,13.58-9.71,21.42c-0.63,4.73-0.02,9.54-0.36,14.29
			s-1.9,9.79-5.75,12.61c-3.85,2.82-10.35,2.11-12.26-2.26c-0.64,10.81-1.28,21.62-1.92,32.42"/>
		<path class="st0" d="M297.45,361.34c53.53,5.04,108.82-12.33,149.85-47.07c-1.86,3.1-0.22,7.35,2.68,9.52s6.64,2.75,10.23,3.15
			c34.84,3.88,70.83-3.24,101.56-20.1c13.41-7.35,26.17-16.88,33.89-30.08c7.72-13.2,9.52-30.63,1.47-43.63
			c-7.19-11.6-20.7-17.78-34.01-20.82c-43.73-9.99-92.7,9.9-117.09,47.54c-4.37,6.75-8.08,14.23-8.62,22.25s2.62,16.68,9.45,20.93
			c-39.15,37.2-92.95,58.54-146.96,58.29"/>
		<path class="st2" d="M292.17,364.13c1.66-0.07,3.06-1.43,3.65-2.99c0.59-1.56,0.54-3.28,0.39-4.94c-0.38-4.34-1.3-8.65-1.29-13.01
			c0.01-4.36,1.08-8.94,4.1-12.08c3.03-3.14,8.36-4.27,11.85-1.67"/>
		<path class="st2" d="M316.12,346.96c-11.44,15.04-18.19,33.59-19.09,52.46"/>
		<path class="st2" d="M289.54,367.28c3.36,2.76,4.58,7.49,4.18,11.82s-2.19,8.39-3.96,12.37"/>
		<path class="st7" d="M265.56,314.95c-31.34,10.4-65.27,12.86-97.36,6.18c30.96-9.86,64.21-12.42,96.31-7.43"/>
	</g>
</g>
<g id="Layer_5">
</g>
</svg>
